<svg xmlns="http://www.w3.org/2000/svg" width="38" height="38" viewBox="0 0 38 38" preserveAspectRatio="xMinYMin meet"><text x="14" y="21" font-family="Roboto" font-size="2" fill="rgba(0,0,0,0.8)" letter-spacing=".6">SAPIENS <animate attributeName="opacity" values="0;1;0" dur="1.8s" repeatCount="indefinite"/></text><path fill="rgba(0,0,0,0.2)" d="M20 35c-8.27 0-15-6.73-15-15S11.73 5 20 5s15 6.73 15 15-6.73 15-15 15zm0-29.797C11.84 5.203 5.203 11.84 5.203 20c0 8.16 6.638 14.797 14.797 14.797S34.797 28.16 34.797 20c0-8.16-6.638-14.797-14.797-14.797z"/><path fill="rgba(0,0,0,0.3)" d="M20 33.125c-7.237 0-13.125-5.888-13.125-13.125S12.763 6.875 20 6.875 33.125 12.763 33.125 20 27.237 33.125 20 33.125zm0-26.047C12.875 7.078 7.078 12.875 7.078 20c0 7.125 5.797 12.922 12.922 12.922S32.922 27.125 32.922 20c0-7.125-5.797-12.922-12.922-12.922z"/><path fill="#03a9f4" stroke="#03a9f4" stroke-width=".603" stroke-miterlimit="10" d="M5.203 20C5.203 11.84 11.84 5.203 20 5.203V5C11.73 5 5 11.73 5 20s6.73 15 15 15v-.203C11.84 34.797 5.203 28.16 5.203 20z"><animateTransform attributeName="transform" type="rotate" from="0 20 20" to="360 20 20" calcMode="spline" keySplines="0.4, 0, 0.2, 1" keyTimes="0;1" dur="2s" repeatCount="indefinite"/></path><path fill="#FF4081" stroke="#FF4081" stroke-width=".203" stroke-miterlimit="10" d="M7.078 20c0-7.125 5.797-12.922 12.922-12.922v-.203C12.763 6.875 6.875 12.763 6.875 20S12.763 33.125 20 33.125v-.203c-7.125 0-12.922-5.797-12.922-12.922z"><animateTransform attributeName="transform" type="rotate" from="0 20 20" to="360 20 20" dur="1.8s" repeatCount="indefinite"/></path></svg>